#!OML:ASF H:\Dans Jumps\Project 1\Capture day 1\Session 1\subject.ASF
:FULLY-SPECIFIED
:DEGREES
578
root 0.101645 17.8551 -5.18014 15.8713 -1.77444 -1.78445
lowerback 2.11266 0.0927875 -1.12467
upperback 5.46431 0.0789021 1.41225
thorax 4.44781 -0.0435702 2.0903
lowerneck -13.1537 0.499595 -0.470417
upperneck 26.3439 0.968231 -0.57418
head 10.6212 0.322124 -0.00122895
rclavicle -1.19271e-015 -4.07509e-015
rhumerus -35.5049 -2.23722 -82.8754
rradius 40.3388
rwrist 19.3761
rhand -23.8431 -28.4115
rfingers 7.12502
rthumb 2.62885 -58.375
lclavicle -1.19271e-015 -4.07509e-015
lhumerus -35.7747 -8.38484 89.7186
lradius 41.7847
lwrist 26.3345
lhand -28.6397 -6.59971
lfingers 7.12502
lthumb -2.00378 23.3706
rfemur -22.3034 -4.68793 21.6549
rtibia 20.5669
rfoot -12.6641 -1.51657
rtoes 19.9812
lfemur -20.0925 7.38209 -18.7494
ltibia 17.6357
lfoot -10.6752 4.40946
ltoes 9.11584
579
root 0.101096 17.8552 -5.17821 15.8203 -1.77183 -1.77908
lowerback 2.06549 0.0871051 -1.11626
upperback 5.44781 0.0717742 1.40815
thorax 4.45753 -0.046612 2.08128
lowerneck -13.1728 0.51231 -0.470165
upperneck 26.3779 0.988958 -0.58257
head 10.6376 0.330321 -0.001526
rclavicle 4.72114e-016 -4.27387e-015
rhumerus -35.502 -2.23708 -82.8978
rradius 40.3235
rwrist 19.3891
rhand -23.7935 -28.4164
rfingers 7.12502
rthumb 2.67677 -58.3794
lclavicle 4.72114e-016 -4.27387e-015
lhumerus -35.7633 -8.3672 89.7168
lradius 41.8451
lwrist 26.3227
lhand -28.6133 -6.57333
lfingers 7.12502
lthumb -1.97824 23.3972
rfemur -22.2305 -4.68746 21.6451
rtibia 20.5526
rfoot -12.6677 -1.52453
rtoes 19.9762
lfemur -20.0092 7.39284 -18.7481
ltibia 17.6001
lfoot -10.6782 4.39127
ltoes 9.14718
580
root 0.100562 17.8552 -5.17631 15.7706 -1.76802 -1.77648
lowerback 2.01728 0.0808225 -1.10357
upperback 5.4314 0.063804 1.40422
thorax 4.46795 -0.049904 2.07
lowerneck -13.1908 0.526151 -0.460413
upperneck 26.41 1.01152 -0.600491
head 10.6532 0.339168 -0.00662284
rclavicle -6.23687e-015 -4.12478e-015
rhumerus -35.5004 -2.23542 -82.9205
rradius 40.3123
rwrist 19.3997
rhand -23.7477 -28.4231
rfingers 7.12502
rthumb 2.72104 -58.3854
lclavicle -6.23687e-015 -4.12478e-015
lhumerus -35.7524 -8.34191 89.7132
lradius 41.9043
lwrist 26.3163
lhand -28.5973 -6.56322
lfingers 7.12502
lthumb -1.96276 23.4075
rfemur -22.1579 -4.68678 21.6383
rtibia 20.5368
rfoot -12.6723 -1.53265
rtoes 19.9683
lfemur -19.9282 7.40077 -18.743
ltibia 17.5657
lfoot -10.6791 4.37483
ltoes 9.17535
581
root 0.10018 17.8552 -5.1745 15.7206 -1.76196 -1.77455
lowerback 1.97211 0.0747705 -1.08668
upperback 5.41541 0.0560815 1.40021
thorax 4.47708 -0.052886 2.05628
lowerneck -13.202 0.53837 -0.447194
upperneck 26.4347 1.03201 -0.62273
head 10.6649 0.346974 -0.0141496
rclavicle -2.01269e-015 -5.66536e-015
rhumerus -35.4959 -2.24153 -82.9394
rradius 40.3003
rwrist 19.4099
rhand -23.7175 -28.4249
rfingers 7.12502
rthumb 2.75021 -58.3869
lclavicle -2.01269e-015 -5.66536e-015
lhumerus -35.7382 -8.31406 89.7112
lradius 41.9532
lwrist 26.3123
lhand -28.5975 -6.5969
lfingers 7.12502
lthumb -1.96299 23.3738
rfemur -22.0847 -4.68884 21.6321
rtibia 20.5205
rfoot -12.6781 -1.53875
rtoes 19.9618
lfemur -19.8496 7.40676 -18.7372
ltibia 17.535
lfoot -10.6794 4.3602
ltoes 9.19849
582
root 0.100057 17.8552 -5.17286 15.6717 -1.75367 -1.77374
lowerback 1.92931 0.0697496 -1.06363
upperback 5.40054 0.049657 1.39595
thorax 4.48595 -0.0549627 2.03884
lowerneck -13.2069 0.546787 -0.446521
upperneck 26.4523 1.04581 -0.629202
head 10.6724 0.35243 -0.0147732
rclavicle 4.22417e-015 -9.49197e-015
rhumerus -35.4892 -2.25687 -82.9543
rradius 40.294
rwrist 19.4138
rhand -23.7059 -28.4143
rfingers 7.12502
rthumb 2.76134 -58.3762
lclavicle 4.22417e-015 -9.49197e-015
lhumerus -35.7153 -8.28969 89.7118
lradius 41.9865
lwrist 26.3112
lhand -28.6076 -6.65438
lfingers 7.12502
lthumb -1.97277 23.3162
rfemur -22.0134 -4.69537 21.6275
rtibia 20.5048
rfoot -12.6856 -1.54273
rtoes 19.9536
lfemur -19.7748 7.40914 -18.7307
ltibia 17.508
lfoot -10.6786 4.34981
ltoes 9.20575
583
root 0.100108 17.8552 -5.17132 15.6242 -1.7425 -1.77427
lowerback 1.88694 0.0656226 -1.03524
upperback 5.38721 0.0443501 1.39158
thorax 4.49614 -0.0562796 2.01833
lowerneck -13.2067 0.551538 -0.45326
upperneck 26.4641 1.05324 -0.625014
head 10.6767 0.355585 -0.0111501
rclavicle 2.41026e-015 -5.61567e-015
rhumerus -35.4803 -2.28154 -82.9647
rradius 40.2938
rwrist 19.4102
rhand -23.7141 -28.3923
rfingers 7.12502
rthumb 2.75348 -58.3542
lclavicle 2.41026e-015 -5.61567e-015
lhumerus -35.6813 -8.26953 89.7137
lradius 42.0046
lwrist 26.3128
lhand -28.6201 -6.70206
lfingers 7.12502
lthumb -1.98481 23.2685
rfemur -21.9444 -4.70635 21.6249
rtibia 20.4905
rfoot -12.6957 -1.54404
rtoes 19.952
lfemur -19.7034 7.40844 -18.723
ltibia 17.4844
lfoot -10.6783 4.34216
ltoes 9.20417
584
root 0.100096 17.8552 -5.16995 15.5813 -1.72662 -1.77231
lowerback 1.84346 0.0597498 -1.00845
upperback 5.37296 0.0367173 1.38745
thorax 4.50609 -0.058815 1.99891
lowerneck -13.1925 0.551777 -0.48462
upperneck 26.4625 1.05258 -0.593412
head 10.6729 0.355995 0.00539954
rclavicle -3.15571e-015 -8.89561e-015
rhumerus -35.4698 -2.30715 -82.9717
rradius 40.2923
rwrist 19.3965
rhand -23.7519 -28.3324
rfingers 7.12502
rthumb 2.71693 -58.2948
lclavicle -3.15571e-015 -8.89561e-015
lhumerus -35.6382 -8.24904 89.7159
lradius 42.0051
lwrist 26.3165
lhand -28.6236 -6.79276
lfingers 7.12502
lthumb -1.9882 23.1777
rfemur -21.8812 -4.71545 21.6204
rtibia 20.4772
rfoot -12.7061 -1.55232
rtoes 19.9566
lfemur -19.64 7.40446 -18.7178
ltibia 17.4627
lfoot -10.6768 4.33392
ltoes 9.19785
585
root 0.100169 17.8553 -5.16872 15.5386 -1.7098 -1.76644
lowerback 1.8031 0.0551416 -0.98332
upperback 5.35889 0.0308055 1.38188
thorax 4.51439 -0.0605156 1.97896
lowerneck -13.1835 0.551158 -0.511527
upperneck 26.4673 1.05054 -0.564706
head 10.6726 0.355828 0.0199967
rclavicle -2.45996e-015 -1.12313e-014
rhumerus -35.4605 -2.34272 -82.9731
rradius 40.2945
rwrist 19.3779
rhand -23.7893 -28.2748
rfingers 7.12502
rthumb 2.68082 -58.2377
lclavicle -2.45996e-015 -1.12313e-014
lhumerus -35.5903 -8.22955 89.7184
lradius 41.9984
lwrist 26.3142
lhand -28.6271 -6.84855
lfingers 7.12502
lthumb -1.99156 23.1219
rfemur -21.8193 -4.7269 21.6118
rtibia 20.4653
rfoot -12.7165 -1.55937
rtoes 19.9606
lfemur -19.5778 7.39714 -18.7166
ltibia 17.442
lfoot -10.6763 4.32565
ltoes 9.20364
586
root 0.0998669 17.8554 -5.16722 15.4969 -1.69867 -1.75879
lowerback 1.7573 0.0515225 -0.968637
upperback 5.34392 0.0262799 1.37747
thorax 4.5248 -0.0620069 1.96609
lowerneck -13.1769 0.552137 -0.535551
upperneck 26.4792 1.05147 -0.540957
head 10.6755 0.356657 0.0327257
rclavicle -1.49089e-016 -1.05853e-014
rhumerus -35.45 -2.37904 -82.9691
rradius 40.2904
rwrist 19.3616
rhand -23.7992 -28.2269
rfingers 7.12502
rthumb 2.67127 -58.1899
lclavicle -1.49089e-016 -1.05853e-014
lhumerus -35.5526 -8.21264 89.7241
lradius 41.9947
lwrist 26.3219
lhand -28.6404 -6.89639
lfingers 7.12502
lthumb -2.00439 23.0739
rfemur -21.7592 -4.72574 21.5998
rtibia 20.4548
rfoot -12.7247 -1.57449
rtoes 19.9651
lfemur -19.5162 7.39027 -18.7167
ltibia 17.4221
lfoot -10.6761 4.32126
ltoes 9.22166
587
root 0.0995329 17.8555 -5.16572 15.4532 -1.69166 -1.74894
lowerback 1.71571 0.0494245 -0.958522
upperback 5.32764 0.023807 1.37311
thorax 4.53137 -0.0626304 1.95588
lowerneck -13.1745 0.555697 -0.548847
upperneck 26.5023 1.05727 -0.530678
head 10.6834 0.359078 0.0394517
rclavicle 8.49804e-015 1.49585e-014
rhumerus -35.4404 -2.41987 -82.9601
rradius 40.2819
rwrist 19.3463
rhand -23.7914 -28.1978
rfingers 7.12502
rthumb 2.67882 -58.1607
lclavicle 8.49804e-015 1.49585e-014
lhumerus -35.5223 -8.19833 89.7334
lradius 41.9876
lwrist 26.3257
lhand -28.6597 -6.94469
lfingers 7.12502
lthumb -2.02308 23.0255
rfemur -21.698 -4.72377 21.585
rtibia 20.4457
rfoot -12.7314 -1.58782
rtoes 19.959
lfemur -19.4525 7.3814 -18.7185
ltibia 17.4043
lfoot -10.6781 4.32032
ltoes 9.25025
588
root 0.0992243 17.8554 -5.16412 15.4062 -1.69086 -1.74133
lowerback 1.67861 0.0505013 -0.947993
upperback 5.3102 0.025521 1.36924
thorax 4.53402 -0.0611283 1.94601
lowerneck -13.1794 0.562009 -0.545606
upperneck 26.539 1.06784 -0.53769
head 10.6981 0.363158 0.0378166
rclavicle -4.69629e-015 -4.17448e-015
rhumerus -35.4313 -2.46564 -82.9462
rradius 40.2693
rwrist 19.335
rhand -23.7492 -28.2084
rfingers 7.12502
rthumb 2.71956 -58.1708
lclavicle -4.69629e-015 -4.17448e-015
lhumerus -35.5035 -8.18777 89.7472
lradius 41.9825
lwrist 26.3265
lhand -28.6817 -6.97751
lfingers 7.12502
lthumb -2.04431 22.9924
rfemur -21.6341 -4.71898 21.5716
rtibia 20.4379
rfoot -12.7382 -1.59925
rtoes 19.9472
lfemur -19.3844 7.37296 -18.7181
ltibia 17.3885
lfoot -10.6817 4.32584
ltoes 9.27397
